# xmcd
#
# Track frame offsets:
#	150
#	27860
#	52266
#	82858
#	97081
#	124452
#	147410
#	189039
#	225133
#
# Disc length: 3301 seconds
#
# Revision: 1
# Processed by: cddbd v1.5.2PL0 Copyright (c) Steve Scherf et al.
# Submitted via: audiograbber 1.83.01
#
DISCID=6f0ce309
DTITLE=Grateful Dead - 74-03-23 Cow Palace, Daly City CA
DYEAR=1900
DGENRE=
TTITLE0=Ship Of Fools
TTITLE1=Big River
TTITLE2=Ramble On Rose
TTITLE3=Me and My Uncle
TTITLE4=Bertha
TTITLE5=Around and Around
TTITLE6=Sugar Magnolia
TTITLE7=Casey Jones
TTITLE8=One More Saturday Night
EXTD=
EXTT0=
EXTT1=
EXTT2=
EXTT3=
EXTT4=
EXTT5=
EXTT6=
EXTT7=
EXTT8=
PLAYORDER=
